<svg xmlns="http://www.w3.org/2000/svg" xmlns:xlink="http://www.w3.org/1999/xlink" width="750" height="500" viewBox="0 0 750 500"><defs><clipPath id="b"><rect width="750" height="500"/></clipPath></defs><g id="a" clip-path="url(#b)"><rect width="750" height="500" fill="#fff"/><rect width="134.991" height="198.769" transform="matrix(0.831, -0.556, 0.556, 0.831, 107.674, 197.325)" fill="#f5f5f5"/><path d="M272.42,279.659l-1.273,7.881L215.368,279.5l1.273-7.881Z" fill="#e0e0e0"/><path d="M244.329,251.546l8,1.153-8.874,54.918-8-1.153Z" fill="#e0e0e0"/><path fill="#fff"/><path d="M192.952,181.745c.08.12-11.165,7.781-25.112,17.11s-25.324,16.8-25.4,16.678,11.162-7.779,25.114-17.111S192.872,181.626,192.952,181.745Z" fill="#e0e0e0"/><path d="M234.216,171.387c.08.12-18.619,12.767-41.76,28.244s-41.973,27.934-42.053,27.814,18.615-12.763,41.764-28.247S234.136,171.267,234.216,171.387Z" fill="#e0e0e0"/><path d="M242.487,183.753c.08.12-18.619,12.767-41.759,28.245s-41.973,27.933-42.053,27.814,18.615-12.764,41.763-28.247S242.407,183.634,242.487,183.753Z" fill="#e0e0e0"/><path d="M250.758,196.12c.08.119-18.618,12.766-41.759,28.244s-41.973,27.934-42.053,27.814,18.615-12.764,41.763-28.247S250.678,196,250.758,196.12Z" fill="#e0e0e0"/><path d="M259.03,208.486c.08.12-18.619,12.767-41.76,28.244s-41.973,27.934-42.053,27.814,18.615-12.763,41.764-28.246S258.95,208.367,259.03,208.486Z" fill="#e0e0e0"/><rect width="113.369" height="166.932" transform="translate(500.841 296.033) rotate(-33.777)" fill="#f5f5f5"/><path d="M639.2,365.18,638.13,371.8l-46.844-6.748,1.069-6.618Z" fill="#e0e0e0"/><path d="M615.608,341.569l6.722.968-7.453,46.122-6.722-.968Z" fill="#e0e0e0"/><path fill="#fff"/><path d="M572.46,282.948c.08.12-9.353,6.569-21.067,14.4s-21.278,14.092-21.358,13.972,9.351-6.567,21.069-14.4S572.38,282.829,572.46,282.948Z" fill="#e0e0e0"/><path d="M607.114,274.249c.08.12-15.613,10.757-35.047,23.755s-35.261,23.444-35.341,23.325,15.61-10.754,35.051-23.758S607.034,274.13,607.114,274.249Z" fill="#e0e0e0"/><path d="M614.061,284.635c.08.119-15.614,10.756-35.048,23.755s-35.26,23.444-35.34,23.324,15.61-10.754,35.051-23.757S613.981,284.515,614.061,284.635Z" fill="#e0e0e0"/><path d="M621.007,295.02c.08.12-15.613,10.757-35.047,23.755S550.7,342.219,550.619,342.1s15.61-10.754,35.051-23.757S620.927,294.9,621.007,295.02Z" fill="#e0e0e0"/><path d="M627.954,305.406c.08.12-15.614,10.756-35.048,23.755s-35.26,23.444-35.34,23.324,15.61-10.754,35.051-23.757S627.874,305.287,627.954,305.406Z" fill="#e0e0e0"/><rect width="116.6" height="171.689" transform="matrix(0.882, 0.472, -0.472, 0.882, 343.175, 73.342)" fill="#f5f5f5"/><path d="M347.422,232.368,340.9,234.6l-16.558-45.774,6.523-2.234Z" fill="#e0e0e0"/><path d="M357.423,199.529,359.8,206.1,314.34,221.667l-2.376-6.568Z" fill="#e0e0e0"/><path fill="#fff"/><path d="M389.724,131.993c-.08.151-10.509-5.269-23.289-12.1s-23.081-12.5-23-12.651,10.507,5.269,23.292,12.106S389.8,131.843,389.724,131.993Z" fill="#e0e0e0"/><path d="M414.4,159.227c-.08.15-17.339-8.923-38.544-20.264s-38.337-20.66-38.256-20.81,17.335,8.921,38.547,20.265S414.478,159.076,414.4,159.227Z" fill="#e0e0e0"/><path d="M408.337,170.559c-.081.15-17.34-8.923-38.545-20.264s-38.336-20.66-38.256-20.811,17.336,8.921,38.548,20.266S408.417,170.408,408.337,170.559Z" fill="#e0e0e0"/><path d="M402.276,181.89c-.08.151-17.339-8.923-38.544-20.263s-38.337-20.66-38.256-20.811,17.335,8.921,38.548,20.266S402.357,181.74,402.276,181.89Z" fill="#e0e0e0"/><path d="M396.216,193.222c-.081.151-17.34-8.923-38.544-20.263s-38.337-20.66-38.257-20.811,17.336,8.921,38.548,20.266S396.3,193.072,396.216,193.222Z" fill="#e0e0e0"/><g transform="translate(20 24)"><path d="M298.958,234.544,263.6,416.343l-4.629,23.8,236.063-1.164c10.594-.052,19.983-9.459,23.392-23.435l41.859-171.637c2.588-10.609-3.09-21.644-11.132-21.636l-238.923.251C304.951,222.527,300.339,227.449,298.958,234.544Z" fill="#4caf50"/><g opacity="0.5"><path d="M298.958,234.544,263.6,416.343l-4.629,23.8,236.063-1.164c10.594-.052,19.983-9.459,23.392-23.435l41.859-171.637c2.588-10.609-3.09-21.644-11.132-21.636l-238.923.251C304.951,222.527,300.339,227.449,298.958,234.544Z"/></g><path d="M472.387,404.026,447.393,202.618c-1.024-8.252-7.6-14.408-15.359-14.383l-54.807.179a14.936,14.936,0,0,0-10.826,4.8l-26.025,27.664-152.426.8c-9.315.048-16.471,8.862-15.236,18.765l23.205,186.153c1.028,8.24,7.589,14.388,15.34,14.373l265.647-.525c29.587.613,32.411-8.125,32.411-8.125C475.41,439.831,472.39,404.049,472.387,404.026Z" fill="#4caf50"/><g opacity="0.5"><path d="M357.842,363.717l-8.959,9.622-69-62.075,8.959-9.622Z" fill="#fff"/><path d="M345.128,299.509l9.9,8.908-62.435,67.056-9.9-8.908Z" fill="#fff"/></g></g></g></svg>